<svg xmlns="http://www.w3.org/2000/svg" width="64" height="64" viewBox="0 0 64 64"><style>.st0{fill-rule:evenodd;clip-rule:evenodd}</style><path class="st0" d="M62.854,62.857c-1.528,1.525-4.006,1.525-5.535,0L44.032,49.569v6.427c0.009,2.084-1.783,3.978-3.988,3.989 c-2.205,0.008-3.979-1.9-3.988-3.989V40.043c-0.005-1.149,0.578-2.18,1.445-2.907c0.703-0.639,1.585-1.077,2.543-1.081h15.951 c2.102-0.006,3.979,1.875,3.988,3.989c0.009,2.115-1.887,3.98-3.988,3.988h-6.432l13.29,13.29 C64.382,58.848,64.382,61.326,62.854,62.857z M23.954,27.946H7.996c-2.102,0.006-3.981-1.877-3.99-3.99 c-0.009-2.116,1.888-3.981,3.99-3.99h6.435L1.146,6.679c-1.528-1.528-1.528-4.006,0-5.537c1.528-1.524,4.006-1.524,5.533,0 l13.286,13.289V7.996c-0.009-2.085,1.784-3.98,3.989-3.99c2.206-0.009,3.981,1.901,3.99,3.99v15.96 c0.004,1.149-0.579,2.181-1.446,2.909C25.795,27.504,24.912,27.942,23.954,27.946z" id="arrow-shrink"/></svg>