<svg xmlns="http://www.w3.org/2000/svg" width="64" height="64" viewBox="0 0 64 64"><style>.st0{fill-rule:evenodd;clip-rule:evenodd}</style><path class="st0" d="M60,35.993H15.136l11.407,9.254c1.452,1.463,1.452,3.83,0,5.29c-1.452,1.463-3.807,1.463-5.259,0L3.15,35.822 C1.363,35.421,0,33.899,0,31.992c0-1.877,1.316-3.376,3.055-3.809l18.232-14.726c1.453-1.456,3.808-1.456,5.26,0 c1.453,1.461,1.453,3.83,0,5.288l-11.449,9.247H60c2.209,0,4,1.787,4,4C64,34.2,62.209,35.993,60,35.993z" id="arrow-left"/></svg>