<svg xmlns="http://www.w3.org/2000/svg" width="64" height="64" viewBox="0 0 64 64"><style>.st0{fill-rule:evenodd;clip-rule:evenodd}</style><path class="st0" d="M62.549,62.919c-0.704,0.639-1.587,1.078-2.546,1.082H44.012c-2.106,0.006-3.989-1.88-3.997-3.998 c-0.009-2.12,1.891-3.989,3.997-3.998h6.448L37.137,42.683c-1.532-1.531-1.532-4.015,0-5.549c1.532-1.529,4.016-1.529,5.548,0 l13.319,13.32v-6.442c-0.009-2.089,1.788-3.988,3.998-3.998c2.21-0.008,3.989,1.905,3.997,3.998v15.992 C64.005,61.156,63.42,62.19,62.549,62.919z M21.323,26.873L8.001,13.549v6.453c0.009,2.09-1.789,3.99-4.001,4.001 C1.789,24.01,0.009,22.096,0,20.001V4c-0.004-1.152,0.58-2.186,1.45-2.916c0.705-0.641,1.59-1.081,2.551-1.085h16.002 C22.111-0.007,23.995,1.88,24.004,4C24.012,6.121,22.111,7.991,20.003,8H13.55l13.322,13.321c1.532,1.533,1.532,4.017,0,5.551 C25.339,28.401,22.855,28.401,21.323,26.873z" id="arrow-expand"/></svg>