<svg xmlns="http://www.w3.org/2000/svg" width="64" height="64" viewBox="0 0 64 64"><style>.st0{fill-rule:evenodd;clip-rule:evenodd}</style><path class="st0" d="M34,64h-4c-11.046,0-20-8.954-20-20v-8V24V14c0-7.732,6.268-14,14-14h4c7.732,0,14,6.268,14,14v2v20v4 c0,4.418-3.581,8-8,8h-4c-4.418,0-8-3.582-8-8V16h8v18.666C30,37.612,30.716,40,31.6,40h0.8c0.884,0,1.6-2.388,1.6-5.334V16v-2 c0-3.314-2.686-6-6-6h-4c-3.314,0-6,2.686-6,6v10v12v8c0,6.627,5.372,12,12,12h4c6.627,0,12-5.372,12-12V24h8v20 C54,55.046,45.046,64,34,64z" id="attach-file"/></svg>