<svg xmlns="http://www.w3.org/2000/svg" width="64" height="64" viewBox="0 0 64 64"><style>.st0{fill-rule:evenodd;clip-rule:evenodd}</style><path class="st0" d="M48.885,24.577L29.412,43.869c-0.175,0.335-0.353,0.672-0.635,0.953c-0.791,0.786-1.839,1.126-2.874,1.078 c-1.025,0.039-2.06-0.306-2.844-1.084c-0.256-0.255-0.407-0.563-0.575-0.863l-7.363-7.124c-1.493-1.482-1.493-3.885,0-5.368 c1.491-1.482,3.906-1.482,5.399,0l5.361,5.19l17.607-17.443c1.489-1.483,3.907-1.483,5.398,0 C50.372,20.691,50.372,23.094,48.885,24.577z" id="check-mini"/></svg>