<svg xmlns="http://www.w3.org/2000/svg" width="64" height="64" viewBox="0 0 64 64"><style>.st0{fill-rule:evenodd;clip-rule:evenodd}</style><path class="st0" d="M59.006,16.46l-31.408,35.15c-0.185,0.477-0.46,0.925-0.846,1.31c-0.788,0.784-1.833,1.122-2.865,1.075 c-1.022,0.039-2.054-0.305-2.835-1.081c-0.267-0.266-0.431-0.587-0.602-0.902l-15.452-15.2c-1.488-1.477-1.488-3.873,0-5.351 c1.486-1.478,3.894-1.478,5.383,0l13.334,13.119l29.911-33.474c1.484-1.478,3.894-1.478,5.38,0 C60.488,12.587,60.488,14.983,59.006,16.46z" id="check"/></svg>