<svg xmlns="http://www.w3.org/2000/svg" width="64" height="64" viewBox="0 0 64 64"><style>.st0{fill-rule:evenodd;clip-rule:evenodd}</style><path class="st0" d="M62.936,34.79c-0.262,0.263-0.577,0.424-0.887,0.592l-11.098,11.27c-1.448,1.46-3.797,1.46-5.246,0 c-1.448-1.457-1.448-3.819,0-5.278l9.236-9.376L45.7,22.617c-1.45-1.455-1.45-3.818,0-5.276c1.448-1.453,3.798-1.453,5.246,0 l11.08,11.249c0.321,0.17,0.646,0.34,0.916,0.611c0.768,0.773,1.1,1.797,1.054,2.809C64.034,33.012,63.697,34.024,62.936,34.79z M20.082,56.168L36.195,7.832h8.056L28.138,56.168H20.082z M9.397,31.997l9.527,9.527c1.499,1.501,1.499,3.929,0,5.428 c-1.498,1.501-3.927,1.501-5.426,0L2.044,35.493c-0.331-0.175-0.665-0.348-0.944-0.626c-0.787-0.788-1.135-1.829-1.096-2.859 c-0.048-1.04,0.295-2.094,1.09-2.889c0.287-0.287,0.63-0.468,0.973-0.646l11.435-11.437c1.499-1.495,3.929-1.495,5.427,0 c1.499,1.499,1.499,3.929,0,5.426L9.397,31.997z" id="code-unfold"/></svg>