<svg xmlns="http://www.w3.org/2000/svg" width="64" height="64" viewBox="0 0 64 64"><style>.st0{fill-rule:evenodd;clip-rule:evenodd}</style><path class="st0" d="M63.996,32.013c0.038,1.002-0.298,2.014-1.059,2.78c-0.262,0.263-0.578,0.424-0.888,0.592L50.95,46.656 c-1.448,1.46-3.797,1.46-5.246,0c-1.448-1.457-1.448-3.819,0-5.278l9.236-9.376L45.7,22.62c-1.45-1.455-1.45-3.818,0-5.276 c1.448-1.453,3.797-1.453,5.247,0l11.079,11.249c0.321,0.17,0.646,0.34,0.916,0.611C63.71,29.977,64.042,31.001,63.996,32.013z M9.397,32l9.527,9.527c1.498,1.501,1.498,3.929,0,5.428c-1.498,1.501-3.927,1.501-5.426,0L2.043,35.496 C1.713,35.321,1.378,35.149,1.1,34.87c-0.787-0.788-1.135-1.829-1.096-2.859c-0.048-1.04,0.295-2.094,1.09-2.889 c0.287-0.287,0.63-0.468,0.973-0.646L13.502,17.04c1.499-1.495,3.929-1.495,5.428,0c1.498,1.499,1.498,3.929,0,5.426L9.397,32z" id="code"/></svg>