<svg xmlns="http://www.w3.org/2000/svg" width="64" height="64" viewBox="0 0 64 64"><style>.st0{fill-rule:evenodd;clip-rule:evenodd}</style><path class="st0" d="M32,63.999c-17.673,0-32-14.324-32-31.998C0,14.326,14.327,0.001,32,0.001s32,14.325,32,31.999 C64,49.675,49.674,63.999,32,63.999z M32.001,8.006c-13.255,0-24,10.745-24,24c0,6.174,2.398,11.747,6.229,16h5.771 c0-3.805,1.806-7.156,4.568-9.354l-3.02-11.27c-0.286-1.067,0.347-2.164,1.414-2.45l3.864-1.035 c1.067-0.286,2.164,0.347,2.45,1.414l2.869,10.709c6.559,0.08,11.855,5.408,11.855,11.985h5.771c3.831-4.252,6.228-9.825,6.228-16 C56.001,18.751,45.256,8.006,32.001,8.006z" id="dashboard"/></svg>