<svg xmlns="http://www.w3.org/2000/svg" width="64" height="64" viewBox="0 0 64 64"><style>.st0{fill-rule:evenodd;clip-rule:evenodd}</style><path class="st0" d="M32,64C14.327,64,0,49.673,0,32C0,14.327,14.327,0,32,0c17.673,0,32,14.327,32,32C64,49.673,49.673,64,32,64z M22,16c-3.314,0-6,2.686-6,6c0,3.314,2.686,6,6,6c3.314,0,6-2.686,6-6C28,18.686,25.314,16,22,16z M42,16c-3.314,0-6,2.686-6,6 c0,3.314,2.686,6,6,6c3.314,0,6-2.686,6-6C48,18.686,45.314,16,42,16z M45.781,36c-2.772,4.762-7.874,8-13.781,8 c-5.907,0-11.009-3.238-13.781-8h-8.75C12.776,45.3,21.565,52,32,52c10.434,0,19.225-6.7,22.531-16H45.781z" id="emoticon"/></svg>