<svg xmlns="http://www.w3.org/2000/svg" width="64" height="64" viewBox="0 0 64 64"><style>.st0{fill-rule:evenodd;clip-rule:evenodd}</style><path class="st0" d="M57.6,46.933h-6.4v8.533c0,4.713-3.821,8.533-8.533,8.533h-8.534v-6.4c0-3.534-2.865-6.4-6.4-6.4h-4.267 c-3.534,0-6.4,2.865-6.4,6.4V64H8.533C3.82,64,0,60.179,0,55.467v-8.533h6.4c3.535,0,6.4-2.865,6.4-6.4v-4.267 c0-3.535-2.865-6.4-6.4-6.4H0v-8.533C0,16.62,3.82,12.8,8.533,12.8h8.533V6.4c0-3.535,2.865-6.4,6.4-6.4h4.267 c3.535,0,6.4,2.865,6.4,6.4v6.4h8.534c4.713,0,8.533,3.82,8.533,8.533v8.533h6.4c3.535,0,6.4,2.866,6.4,6.4v4.267 C64,44.068,61.135,46.933,57.6,46.933z" id="extension"/></svg>