<svg xmlns="http://www.w3.org/2000/svg" width="64" height="64" viewBox="0 0 64 64"><style>.st0{fill-rule:evenodd;clip-rule:evenodd}</style><path class="st0" d="M32,64C14.327,64,0,49.673,0,32C0,14.327,14.327,0,32,0c17.673,0,32,14.327,32,32C64,49.673,49.673,64,32,64z M28,52h8v-8h-8V52z M32,11.999c-4.172,0-7.791,2.161-9.93,5.397l0.049,0.038c-0.596,0.698-0.994,1.575-0.994,2.566 c0,2.209,1.791,4,4,4s4-1.791,4-4H32c2.209,0,4,1.791,4,4s-1.791,4-4,4c0,0-4-0.375-4,12c0,0.125,8,0,8,0v-4.735 c4.65-1.653,8-6.048,8-11.265C44,17.372,38.627,11.999,32,11.999z" id="help-circle"/></svg>