<svg xmlns="http://www.w3.org/2000/svg" width="64" height="64" viewBox="0 0 64 64"><style>.st0{fill-rule:evenodd;clip-rule:evenodd}</style><path class="st0" d="M59.987,63.944c-2.128,0.009-4.004-1.89-4.013-3.994v-6.986C50.126,59.663,41.594,63.953,32,63.953 c-16.291,0-29.708-12.201-31.677-27.959h8.115c1.91,11.324,11.695,19.97,23.562,19.97c8.85,0,16.493-4.852,20.644-11.988H39.922 c-2.096,0.009-4.002-1.786-4.013-3.994c-0.008-2.199,1.898-3.967,3.99-3.988h23.663c-0.089,0.683-0.073,1.397-0.202,2.066 c0.367,0.586,0.638,1.223,0.641,1.922V59.95C64.006,62.055,62.113,63.935,59.987,63.944z M32,8.036 c-8.85,0-16.494,4.852-20.644,11.988h12.722c2.097-0.009,4.003,1.786,4.014,3.994c0.008,2.2-1.899,3.967-3.991,3.989H0.439 c0.089-0.683,0.073-1.397,0.202-2.066C0.274,25.354,0.003,24.716,0,24.017V4.049c-0.006-2.104,1.887-3.984,4.013-3.993 c2.128-0.009,4.004,1.889,4.013,3.993v6.987C13.874,4.337,22.406,0.047,32,0.047c16.291,0,29.707,12.201,31.677,27.959h-8.115 C53.652,16.682,43.867,8.036,32,8.036z" id="loop"/></svg>