<svg xmlns="http://www.w3.org/2000/svg" width="64" height="64" viewBox="0 0 64 64"><style>.st0{fill-rule:evenodd;clip-rule:evenodd}</style><path class="st0" d="M62,44c1.105,0,2,0.895,2,2v4c0,1.104-0.896,2-2,2h-7.092c-0.704,1.194-1.706,2.192-2.908,2.89V62 c0,1.104-0.895,2-2,2h-4c-1.104,0-2-0.896-2-2v-6h-8v6c0,1.104-0.895,2-2,2h-4c-1.105,0-2-0.896-2-2v-6h-8v6c0,1.104-0.896,2-2,2 h-4c-1.105,0-2-0.896-2-2v-7.11c-1.201-0.699-2.204-1.696-2.907-2.89H2c-1.105,0-2-0.896-2-2v-4c0-1.105,0.896-2,2-2h6v-8H2 c-1.105,0-2-0.896-2-2v-4c0-1.105,0.896-2,2-2h6v-8H2c-1.105,0-2-0.896-2-2v-4c0-1.105,0.896-2,2-2h7.093 C9.796,10.806,10.799,9.809,12,9.11V2c0-1.105,0.896-2,2-2h4c1.104,0,2,0.895,2,2v6h8V2c0-1.105,0.895-2,2-2h4c1.104,0,2,0.895,2,2 v6h8V2c0-1.105,0.895-2,2-2h4c1.104,0,2,0.895,2,2v7.109c1.201,0.699,2.204,1.697,2.908,2.89H62c1.105,0,2,0.896,2,2v4 c0,1.104-0.896,2-2,2h-6v8h6c1.105,0,2,0.895,2,2v4c0,1.104-0.896,2-2,2h-6v8H62z" id="memory"/></svg>