<svg xmlns="http://www.w3.org/2000/svg" width="64" height="64" viewBox="0 0 64 64"><style>.st0{fill-rule:evenodd;clip-rule:evenodd}</style><path class="st0" d="M63.999,28.003C63.997,56,40,56,40,56v-8c0,0,13.752-0.028,15.741-16H44c-2.209,0-4-1.791-4-4V12 c0-2.209,1.791-4,4-4h16c2.209,0,4,1.791,4,4v16C64,28.001,63.999,28.002,63.999,28.003z M0,56v-8c0,0,13.752-0.028,15.741-16H4 c-2.209,0-4-1.791-4-4V12c0-2.209,1.791-4,4-4h16c2.209,0,4,1.791,4,4v16c0,0.001-0.001,0.002-0.001,0.003C23.997,56,0,56,0,56z" id="quote-right"/></svg>