<svg xmlns="http://www.w3.org/2000/svg" width="64" height="64" viewBox="0 0 64 64"><style>.st0{fill-rule:evenodd;clip-rule:evenodd}</style><path class="st0" d="M63.731,56.362c-0.148,0.948-0.867,1.645-1.854,1.645c-0.021,0-0.045,0-0.068-0.001 c-1.012-0.032-1.65-0.792-1.736-1.768c-0.068-0.716-4.104-18.265-32.12-18.247c0,0,0,8.895,0,9.999c0,1.105-0.896,2-2,2 c-0.148,0-0.278-0.054-0.416-0.084l0.003,0.242l-0.499-0.405c-0.236-0.124-0.437-0.289-0.606-0.492L0.73,29.989 c-0.465-0.369-0.732-0.919-0.73-1.5c0.001-0.58,0.271-1.13,0.736-1.496L24.92,6.151l0.002,0.168 c0.305-0.189,0.644-0.326,1.03-0.326c1.104,0,2,0.895,2,2c0,1.104,0,9.999,0,9.999c11.622,0.357,22.667,4.743,28.502,11.349 C65.949,40.092,63.83,55.712,63.731,56.362z" id="reply"/></svg>