<svg xmlns="http://www.w3.org/2000/svg" width="64" height="64" viewBox="0 0 64 64"><style>.st0{fill-rule:evenodd;clip-rule:evenodd}</style><path class="st0" d="M61.69,31.791L33.481,60h-1.419H12.068h-1.342L2.31,51.584c-3.123-3.123-3.123-8.187,0-11.31L36.241,6.342 c3.124-3.123,8.187-3.123,11.31,0L61.69,20.48C64.813,23.604,64.813,28.668,61.69,31.791z M38.788,37.292l-7.855-7.855 c-1.735-1.735-4.25-2.034-5.616-0.667L10.472,43.615c-1.366,1.366-1.068,3.881,0.667,5.616l2.772,2.771h16.45l9.094-9.094 C40.822,41.542,40.523,39.028,38.788,37.292z" id="rubber"/></svg>