<svg xmlns="http://www.w3.org/2000/svg" width="64" height="64" viewBox="0 0 64 64"><style>.st0{fill-rule:evenodd;clip-rule:evenodd}</style><path class="st0" d="M62.013,11.461L36.288,32l25.725,20.539c1.893,1.104,2.541,3.549,1.448,5.461 c-1.093,1.912-3.513,2.567-5.405,1.463L29.973,37.042l-7.206,5.753c0.764,1.578,1.229,3.326,1.229,5.196 c0,6.624-5.37,11.994-11.994,11.994c-6.624,0-11.994-5.37-11.994-11.994c0-6.624,5.37-11.994,11.994-11.994 c1.872,0,3.621,0.466,5.2,1.231c0.246-0.254,0.476-0.523,0.796-0.709L23.658,32l-5.661-4.52c-0.32-0.186-0.55-0.455-0.796-0.709 c-1.579,0.765-3.328,1.231-5.2,1.231c-6.624,0-11.994-5.37-11.994-11.994c0-6.624,5.37-11.993,11.994-11.993 c6.624,0,11.994,5.37,11.994,11.993c0,1.871-0.465,3.619-1.229,5.196l7.206,5.754L58.056,4.536 c1.893-1.104,4.313-0.449,5.405,1.463C64.554,7.912,63.906,10.357,62.013,11.461z M16,43.994H8.004v7.996H16V43.994z M16,12.011 H8.004v7.996H16V12.011z" id="scissor"/></svg>