<svg xmlns="http://www.w3.org/2000/svg" width="64" height="64" viewBox="0 0 64 64"><style>.st0{fill-rule:evenodd;clip-rule:evenodd}</style><path class="st0" d="M59.421,56.624l-2.797,2.797c-0.773,0.773-2.025,0.773-2.797,0L41.451,47.045 c-3.879,2.761-8.593,4.422-13.717,4.422C14.627,51.468,4,40.842,4,27.734C4,14.626,14.627,4,27.734,4s23.734,10.626,23.734,23.734 c0,5.124-1.661,9.838-4.423,13.717l12.375,12.375C60.193,54.599,60.193,55.851,59.421,56.624z M27.734,11.912 c-8.738,0-15.823,7.084-15.823,15.823c0,8.738,7.084,15.823,15.823,15.823s15.823-7.084,15.823-15.823 C43.557,18.995,36.473,11.912,27.734,11.912z" id="search"/></svg>