<svg xmlns="http://www.w3.org/2000/svg" width="64" height="64" viewBox="0 0 64 64"><style>.st0{fill-rule:evenodd;clip-rule:evenodd}</style><path class="st0" d="M58,56h-4c-1.104,0-2-0.895-2-2V10c0-1.104,0.896-2,2-2h4c1.105,0,2,0.896,2,2v44C60,55.105,59.104,56,58,56z M42,56h-4c-1.104,0-2-0.895-2-2V22c0-1.104,0.896-2,2-2h4c1.105,0,2,0.896,2,2v32C44,55.105,43.104,56,42,56z M26,56h-4 c-1.104,0-2-0.895-2-2V34c0-1.105,0.895-2,2-2h4c1.105,0,2,0.896,2,2v20C28,55.105,27.104,56,26,56z M10,56H6c-1.104,0-2-0.895-2-2 v-8c0-1.104,0.895-2,2-2h4c1.105,0,2,0.895,2,2v8C12,55.105,11.104,56,10,56z" id="signal"/></svg>