<svg xmlns="http://www.w3.org/2000/svg" width="64" height="64" viewBox="0 0 64 64"><style>.st0{fill-rule:evenodd;clip-rule:evenodd}</style><path class="st0" d="M59.817,8H31.818c-1.105,0-2-0.896-2-2V2c0-1.105,0.895-2,2-2h27.999c1.105,0,2,0.896,2,2v4 C61.818,7.105,60.922,8,59.817,8z M32.355,50.716L21.55,61.286C21.01,62.856,19.561,64,17.809,64c-1.732,0-3.17-1.111-3.727-2.647 L3.274,50.712c-1.456-1.453-1.456-3.808,0-5.26c1.461-1.453,3.83-1.453,5.288,0l5.247,5.166V4c0-2.209,1.787-4,4-4 c2.208,0,4.001,1.791,4.001,4v46.6l5.255-5.142c1.463-1.452,3.829-1.452,5.29,0C33.818,46.91,33.818,49.264,32.355,50.716z M29.818,38v-4c0-1.105,0.895-2,2-2h12c1.104,0,2,0.895,2,2v4c0,1.104-0.896,2-2,2h-12C30.713,40,29.818,39.105,29.818,38z M29.818,22v-4c0-1.105,0.895-2,2-2h20c1.104,0,2,0.895,2,2v4c0,1.104-0.896,2-2,2h-20C30.713,24,29.818,23.105,29.818,22z" id="sort-des"/></svg>