<svg xmlns="http://www.w3.org/2000/svg" width="64" height="64" viewBox="0 0 64 64"><style>.st0{fill-rule:evenodd;clip-rule:evenodd}</style><path class="st0" d="M50.888,26.55c-1.488,1.452-3.901,1.452-5.386,0l-9.419-11.443v44.878c0,2.208-1.82,3.998-4.074,3.998 c-2.249,0-4.075-1.79-4.075-3.998V15.145l-9.426,11.401c-1.49,1.452-3.901,1.452-5.389,0c-1.49-1.451-1.49-3.805,0-5.256 l14.99-18.125c0.408-1.786,1.959-3.148,3.901-3.148c1.912,0,3.439,1.315,3.88,3.054l14.999,18.223 C52.371,22.745,52.371,25.099,50.888,26.55z" id="arro-up"/></svg>