<svg xmlns="http://www.w3.org/2000/svg" width="64" height="64" viewBox="0 0 64 64"><style>.st0{fill-rule:evenodd;clip-rule:evenodd}</style><path class="st0" d="M50.887,42.707L35.888,60.931c-0.442,1.738-1.968,3.053-3.88,3.053c-1.942,0-3.493-1.362-3.9-3.148 l-14.99-18.125c-1.49-1.452-1.49-3.805,0-5.256c1.488-1.452,3.898-1.452,5.388,0l9.427,11.401V4.014 c0-2.208,1.826-3.998,4.076-3.998c2.254,0,4.073,1.79,4.073,3.998v44.879l9.42-11.444c1.486-1.452,3.898-1.452,5.386,0 C52.371,38.902,52.371,41.255,50.887,42.707z" id="arrow-down"/></svg>