<svg xmlns="http://www.w3.org/2000/svg" width="64" height="64" viewBox="0 0 64 64"><style>.st0{fill-rule:evenodd;clip-rule:evenodd}</style><path class="st0" d="M64,31.992c0,1.907-1.363,3.429-3.15,3.83L42.716,50.538c-1.452,1.463-3.807,1.463-5.259,0 c-1.452-1.461-1.452-3.827,0-5.29l11.407-9.254H4c-2.209,0-4-1.793-4-4.001c0-2.213,1.791-3.999,4-3.999h44.902l-11.45-9.248 c-1.453-1.458-1.453-3.827,0-5.288c1.452-1.456,3.807-1.456,5.26,0l18.233,14.726C62.684,28.616,64,30.115,64,31.992z" id="arrow-right"/></svg>