<svg xmlns="http://www.w3.org/2000/svg" width="64" height="64" viewBox="0 0 64 64"><style>.st0{fill-rule:evenodd;clip-rule:evenodd}</style><path class="st0" d="M54,52h-2h-3.04h-10.07H25.11h-10.07H10c-1.104,0-2-0.895-2-2v-4c0-1.105,0.896-2,2-2h2.202 C12.127,43.335,12,42.685,12,42V26c0-9.256,7.013-16.792,16-17.798V2c0-1.105,0.896-2,2-2h4c1.104,0,2,0.895,2,2v6.202 C44.987,9.208,52,16.744,52,26v16c0,0.685-0.127,1.335-0.202,2H54c1.104,0,2,0.895,2,2v4C56,51.104,55.105,52,54,52z M32,64 c-4.418,0-8-3.582-8-8h16C40,60.418,36.419,64,32,64z" id="bell"/></svg>