<svg xmlns="http://www.w3.org/2000/svg" width="64" height="64" viewBox="0 0 64 64"><style>.st0{fill-rule:evenodd;clip-rule:evenodd}</style><path class="st0" d="M40,62H28h-4h-4v-0.735h0v0.734h-8V2h8v0.735h0V2h4h4h8.001c6.627,0,12,5.372,12,12v4 c0,3.54-1.562,6.69-4,8.886v3.849c4.65,1.653,8,6.048,8,11.265v8C52,56.627,46.628,62,40,62z M20,29.265v1.47l0,0L20,29.265 L20,29.265z M32,10h-4c-1.076,0-1.45,0-1.566,0c0.012,0-0.001,0-0.05,0c-0.22,0-1.37,0-6.384,0v16c5.996,0,3.582,0,8,0h4 c4.419,0,8-3.582,8-8C40,13.582,36.419,10,32,10z M44,42c0-4.418-3.582-8-8-8h-4c-4.418,0-1.093,0-12,0v20c3.84,0,5.874,0,8,0 c1.192,0,2.412,0,4,0h4c4.418,0,8-3.582,8-8V42z" id="bold"/></svg>