<svg xmlns="http://www.w3.org/2000/svg" width="64" height="64" viewBox="0 0 64 64"><style>.st0{fill-rule:evenodd;clip-rule:evenodd}</style><path class="st0" d="M60,50H33L12,62V50H4c-2.209,0-4-1.791-4-4V6c0-2.209,1.791-4,4-4h56c2.209,0,4,1.791,4,4v40 C64,48.209,62.209,50,60,50z M16,22c-2.209,0-4,1.791-4,4s1.791,4,4,4s4-1.791,4-4S18.209,22,16,22z M32,22c-2.209,0-4,1.791-4,4 s1.791,4,4,4s4-1.791,4-4S34.209,22,32,22z M48,22c-2.209,0-4,1.791-4,4s1.791,4,4,4s4-1.791,4-4S50.209,22,48,22z" id="chat-working"/></svg>