<svg xmlns="http://www.w3.org/2000/svg" width="64" height="64" viewBox="0 0 64 64"><style>.st0{fill-rule:evenodd;clip-rule:evenodd}</style><path class="st0" d="M42.729,18.499l-13.313,13.47l13.309,13.525c1.479,1.49,1.479,3.901,0,5.389c-1.479,1.49-3.878,1.49-5.357,0 L22.15,35.413c-0.315-0.171-0.636-0.334-0.902-0.602c-0.777-0.782-1.12-1.815-1.082-2.838c-0.048-1.033,0.291-2.079,1.076-2.868 c0.279-0.28,0.613-0.456,0.945-0.63l15.185-15.363c1.48-1.483,3.878-1.483,5.358,0C44.209,14.601,44.209,17.013,42.729,18.499z" id="chevron-left-mini"/></svg>