<svg xmlns="http://www.w3.org/2000/svg" width="64" height="64" viewBox="0 0 64 64"><style>.st0{fill-rule:evenodd;clip-rule:evenodd}</style><path class="st0" d="M59.176,22.523L35.54,45.941c-0.178,0.341-0.361,0.683-0.649,0.97c-0.798,0.791-1.857,1.133-2.903,1.085 c-1.035,0.039-2.081-0.308-2.873-1.091c-0.28-0.278-0.454-0.611-0.629-0.941L4.829,22.527c-1.508-1.492-1.508-3.911,0-5.403 c1.506-1.492,3.946-1.492,5.455,0L32,38.643l21.724-21.523c1.504-1.493,3.946-1.493,5.452,0 C60.678,18.611,60.678,21.03,59.176,22.523z" id="chevron-down"/></svg>