<svg xmlns="http://www.w3.org/2000/svg" width="64" height="64" viewBox="0 0 64 64"><style>.st0{fill-rule:evenodd;clip-rule:evenodd}</style><path class="st0" d="M49.995,32.013c0.044,1.154-0.346,2.32-1.228,3.203c-0.312,0.312-0.686,0.506-1.057,0.701L21.343,62.289 c-1.678,1.681-4.4,1.681-6.078,0c-1.678-1.679-1.678-4.399,0-6.08L39.473,32L15.259,7.784c-1.679-1.677-1.679-4.399,0-6.078 c1.678-1.674,4.4-1.674,6.079,0l26.345,26.347c0.384,0.199,0.769,0.402,1.091,0.724C49.664,29.667,50.049,30.848,49.995,32.013z" id="chevron-right"/></svg>