<svg xmlns="http://www.w3.org/2000/svg" width="64" height="64" viewBox="0 0 64 64"><style>.st0{fill-rule:evenodd;clip-rule:evenodd}</style><path class="st0" d="M50.887,42.728c-1.488,1.48-3.9,1.48-5.386,0l-13.47-13.313L18.506,42.723c-1.49,1.479-3.901,1.479-5.389,0 c-1.49-1.479-1.49-3.878,0-5.357L28.587,22.15c0.171-0.315,0.335-0.636,0.602-0.902c0.782-0.777,1.815-1.12,2.838-1.082 c1.033-0.048,2.079,0.291,2.868,1.076c0.28,0.279,0.456,0.613,0.63,0.945l15.363,15.184C52.371,38.85,52.371,41.249,50.887,42.728z" id="chevron-up-mini"/></svg>