<svg xmlns="http://www.w3.org/2000/svg" width="64" height="64" viewBox="0 0 64 64"><style>.st0{fill-rule:evenodd;clip-rule:evenodd}</style><path class="st0" d="M43.971,32.011c0.039,1.024-0.307,2.06-1.09,2.843c-0.277,0.277-0.609,0.449-0.939,0.623L26.544,50.88 c-1.49,1.493-3.906,1.493-5.397,0c-1.49-1.491-1.49-3.906,0-5.399L34.629,32L21.142,18.511c-1.491-1.489-1.491-3.906,0-5.397 c1.491-1.486,3.907-1.486,5.398,0l15.379,15.381c0.341,0.176,0.683,0.357,0.968,0.642C43.677,29.929,44.019,30.977,43.971,32.011z" id="chevron-right-mini"/></svg>