<svg xmlns="http://www.w3.org/2000/svg" width="64" height="64" viewBox="0 0 64 64"><style>.st0{fill-rule:evenodd;clip-rule:evenodd}</style><path class="st0" d="M56,64H8c-2.209,0-4-1.791-4-4V12c0-2.209,1.791-4,4-4h12V4c0-2.209,1.791-4,4-4h16c2.209,0,4,1.791,4,4v4h12 c2.209,0,4,1.791,4,4v48C60,62.209,58.209,64,56,64z M16,46c0,1.104,0.895,2,2,2h20c1.105,0,2-0.896,2-2v-4c0-1.105-0.896-2-2-2H18 c-1.105,0-2,0.895-2,2V46z M48,26c0-1.105-0.895-2-2-2H18c-1.105,0-2,0.896-2,2v4c0,1.104,0.895,2,2,2h28c1.104,0,2-0.896,2-2V26z" id="clipboard"/></svg>