<svg xmlns="http://www.w3.org/2000/svg" width="64" height="64" viewBox="0 0 64 64"><style>.st0{fill-rule:evenodd;clip-rule:evenodd}</style><path class="st0" d="M37.701,32L57.41,51.709c0.787,0.787,0.787,2.063,0,2.85l-2.85,2.85c-0.787,0.787-2.064,0.787-2.85,0 L32,37.701L12.291,57.41c-0.787,0.787-2.063,0.787-2.85,0l-2.851-2.85c-0.787-0.787-0.787-2.063,0-2.85L26.299,32L6.59,12.291 c-0.787-0.787-0.787-2.064,0-2.85l2.851-2.85c0.787-0.787,2.063-0.787,2.85,0L32,26.299L51.709,6.59 c0.787-0.787,2.063-0.787,2.85,0l2.85,2.85c0.787,0.787,0.787,2.064,0,2.85L37.701,32z" id="close"/></svg>