<svg xmlns="http://www.w3.org/2000/svg" width="64" height="64" viewBox="0 0 64 64"><style>.st0{fill-rule:evenodd;clip-rule:evenodd}</style><path class="st0" d="M37.721,32l11.687,11.687c0.79,0.79,0.79,2.07,0,2.86l-2.86,2.86c-0.79,0.79-2.07,0.79-2.86,0L32,37.721 L20.313,49.408c-0.79,0.79-2.07,0.79-2.86,0l-2.86-2.86c-0.79-0.79-0.79-2.07,0-2.86L26.279,32L14.592,20.313 c-0.79-0.79-0.79-2.071,0-2.86l2.86-2.86c0.79-0.79,2.07-0.79,2.86,0L32,26.279l11.687-11.687c0.79-0.79,2.07-0.79,2.86,0 l2.86,2.86c0.79,0.79,0.79,2.071,0,2.86L37.721,32z" id="close-mini"/></svg>