<svg xmlns="http://www.w3.org/2000/svg" width="64" height="64" viewBox="0 0 64 64"><style>.st0{fill-rule:evenodd;clip-rule:evenodd}</style><path class="st0" d="M62.936,34.793c-0.262,0.263-0.577,0.424-0.887,0.592L50.95,46.656c-1.448,1.46-3.797,1.46-5.246,0 c-1.448-1.457-1.448-3.819,0-5.278l9.236-9.376L45.7,22.62c-1.45-1.455-1.45-3.818,0-5.276c1.448-1.453,3.797-1.453,5.247,0 l11.079,11.249c0.321,0.17,0.646,0.34,0.916,0.611c0.768,0.773,1.1,1.798,1.054,2.809C64.034,33.015,63.697,34.027,62.936,34.793z M40.222,36.031c-2.225,0-4.028-1.803-4.028-4.028c0-2.225,1.803-4.028,4.028-4.028c2.224,0,4.028,1.803,4.028,4.028 C44.25,34.228,42.447,36.031,40.222,36.031z M24.11,36.031c-2.225,0-4.028-1.803-4.028-4.028c0-2.225,1.804-4.028,4.028-4.028 c2.224,0,4.028,1.803,4.028,4.028C28.138,34.228,26.334,36.031,24.11,36.031z M9.397,32l9.527,9.528 c1.498,1.501,1.498,3.929,0,5.428c-1.498,1.501-3.927,1.501-5.426,0L2.043,35.496c-0.331-0.175-0.665-0.347-0.943-0.625 c-0.787-0.788-1.135-1.829-1.096-2.86c-0.048-1.04,0.295-2.094,1.09-2.889c0.287-0.287,0.63-0.469,0.973-0.646L13.502,17.04 c1.499-1.494,3.929-1.494,5.428,0c1.498,1.499,1.498,3.93,0,5.426L9.397,32z" id="code-working"/></svg>