<svg xmlns="http://www.w3.org/2000/svg" width="64" height="64" viewBox="0 0 64 64"><style>.st0{fill-rule:evenodd;clip-rule:evenodd}</style><path class="st0" d="M60,47.996H4c-2.209,0-4-1.79-4-3.999V3.995c0-2.208,1.791-3.998,4-3.998h56c2.209,0,4,1.79,4,3.998v40.001 C64,46.206,62.21,47.996,60,47.996z M56.001,9.603c0-0.884-0.768-1.601-1.714-1.601H9.715c-0.947,0-1.714,0.717-1.714,1.601v28.798 c0,0.886,0.768,1.601,1.714,1.601h44.571c0.947,0,1.714-0.716,1.714-1.601V9.603z M22.401,56.002h5.6v-8h8v8h5.6 c1.325,0,2.4,1.791,2.4,4c0,2.209-1.075,4-2.4,4h-19.2c-1.326,0-2.4-1.791-2.4-4C20.001,57.793,21.075,56.002,22.401,56.002z" id="desktop"/></svg>