<svg xmlns="http://www.w3.org/2000/svg" width="64" height="64" viewBox="0 0 64 64"><style>.st0{fill-rule:evenodd;clip-rule:evenodd}</style><path class="st0" d="M62,60.005h-4H6H2H0v-2v-6v-14c0-1.105,0.895-2,2-2h4c1.104,0,2,0.895,2,2v14h48v-14c0-1.105,0.895-2,2-2h4 c1.104,0,2,0.895,2,2v14v6v2H62z M35.224,42.297c-0.128,0.184-0.202,0.394-0.366,0.559c-0.777,0.776-1.8,1.146-2.818,1.131 c-0.014,0-0.026,0.008-0.04,0.008c-0.014,0-0.023-0.009-0.036-0.009c-1.02,0.016-2.044-0.354-2.822-1.13 c-0.169-0.169-0.249-0.383-0.381-0.573l-11.619-11.62c-1.526-1.524-1.526-3.997,0-5.524c1.525-1.527,3.998-1.527,5.524,0 l5.334,5.334V7.997c0-2.21,1.791-4.002,4-4.002c2.209,0,4,1.791,4,4.002v22.477l5.334-5.335c1.526-1.527,3.999-1.527,5.524,0 c1.525,1.526,1.525,3.999,0,5.524L35.224,42.297z" id="download"/></svg>