<svg xmlns="http://www.w3.org/2000/svg" width="64" height="64" viewBox="0 0 64 64"><style>.st0{fill-rule:evenodd;clip-rule:evenodd}</style><path class="st0" d="M58.182,64.024H5.818C2.605,64.024,0,61.42,0,58.205V5.844c0-3.216,2.605-5.82,5.818-5.82l30.182,0.001 L28,8.027H8.001v47.997h47.998V36.025l8-7.999L64,58.205C64,61.42,61.395,64.024,58.182,64.024z M26.569,42.986 c-0.781,0.781-2.048,0.781-2.829,0l-2.828-2.828c-0.781-0.781-0.781-2.048,0-2.828L57.68,0.562c0.781-0.781,2.048-0.781,2.828,0 l2.828,2.828c0.781,0.781,0.781,2.047,0,2.828L26.569,42.986z" id="edit"/></svg>