<svg xmlns="http://www.w3.org/2000/svg" width="64" height="64" viewBox="0 0 64 64"><style>.st0{fill-rule:evenodd;clip-rule:evenodd}</style><path class="st0" d="M56,61.803H8c-4.418,0-8-3.582-8-8v-36h0.389c-0.028-0.988,0.322-1.983,1.086-2.738L29.052,3.447 c0.05-0.056,0.068-0.127,0.121-0.18c0.774-0.765,1.798-1.104,2.812-1.065c1.024-0.047,2.06,0.287,2.842,1.061 c0.057,0.056,0.076,0.132,0.128,0.191l27.571,11.618c0.762,0.753,1.112,1.746,1.086,2.732H64v36 C64,58.221,60.418,61.803,56,61.803z M56,19.843L31.994,9.731L8,19.84v13.964l24,12l24-12V19.843z M16,29.803v-8h32v8l-16,8 L16,29.803z" id="envelope-open"/></svg>