<svg xmlns="http://www.w3.org/2000/svg" width="64" height="64" viewBox="0 0 64 64"><style>.st0{fill-rule:evenodd;clip-rule:evenodd}</style><path class="st0" d="M56,60H8c-4.418,0-8-3.582-8-8V12.679l28.834,21.696c0.113,0.154,0.174,0.333,0.314,0.473 c0.782,0.781,1.815,1.127,2.839,1.088c1.033,0.048,2.079-0.294,2.869-1.084c0.144-0.144,0.208-0.328,0.323-0.487L64,12.676V52 C64,56.418,60.418,60,56,60z M3.195,5.64C4.536,4.625,6.188,4,8,4h48c1.811,0,3.463,0.625,4.804,1.64L31.998,27.313L3.195,5.64z" id="envelope"/></svg>