<svg xmlns="http://www.w3.org/2000/svg" width="64" height="64" viewBox="0 0 64 64"><style>.st0{fill-rule:evenodd;clip-rule:evenodd}</style><path class="st0" d="M32.001,64C14.328,64,0,49.673,0,32C0,14.327,14.328,0,32.001,0C49.673,0,64,14.327,64,32 C64,49.673,49.673,64,32.001,64z M32,8C18.745,8,8.001,18.745,8.001,32c0,13.255,10.744,24,23.999,24s24-10.745,24-24 C56,18.745,45.255,8,32,8z M32.001,52c-3.387,0-6.528-0.921-9.323-2.407C19.265,46.009,24.754,42.937,32,40 c-2.75-1.588-19.195-12.578-16.059-19.817C19.583,15.244,25.394,12,32.001,12c4.524,0,8.651,1.559,12.002,4.092 c0.425,4.631-1.641,7.337-4.422,8.963C31.567,16.674,28.889,27.488,28.001,28c-1.449,0.835,0,4,0,4s3.595,3.28,12,4 c3.014,0.258,6.962,1.987,8,4c0.795,1.543-0.974,3.119-1.024,5.132C43.311,49.309,37.995,52,32.001,52z" id="globe"/></svg>