<svg xmlns="http://www.w3.org/2000/svg" width="64" height="64" viewBox="0 0 64 64"><style>.st0{fill-rule:evenodd;clip-rule:evenodd}</style><path class="st0" d="M63.249,24.844C58.608,40.779,32,60,32,60S5.392,40.779,0.751,24.844C0.266,23.316,0,21.69,0,20 C0,11.164,9.164,4,18,4c11.854,0,14,12,14,12c2.1-5.856,7.291-12,14-12c8.836,0,18,7.164,18,16 C64,21.69,63.734,23.316,63.249,24.844z M48,12.001c-8.478-2.814-16,16-16,16s-7.125-18.75-16-16c-8.875,2.75-11.875,11.875,0,24 c9.28,9.476,14.5,12.346,16,12c1.433,0.354,6.703-2.698,16-12C59.967,24.028,56.478,14.815,48,12.001z" id="heart-outline"/></svg>