<svg xmlns="http://www.w3.org/2000/svg" width="64" height="68" viewBox="0 0 64 68"><style>.st0{fill-rule:evenodd;clip-rule:evenodd}</style><path class="st0" d="M58.333,30.462l-5.667-5.667l5.667-5.667L64,24.794L58.333,30.462z M40.626,19.832l8.501-8.501l5.667,5.667 l-8.501,8.501L40.626,19.832z M35.663,7.793l5.668-5.668l5.667,5.668l-5.667,5.667L35.663,7.793z M37.792,16.998l-5.667,5.667 l-8.501-8.501c-1.565-1.565-4.102-1.565-5.668,0l-5.667,5.667c-1.565,1.565-1.565,4.102,0,5.668L20.791,34l-5.667,5.667 L3.789,28.333c-3.13-3.13-3.13-8.205,0-11.335L15.123,5.664c3.13-3.13,8.205-3.13,11.335,0l11.348,11.348L37.792,16.998z M11.334,43.206l-5.668,5.667L0,43.206l5.667-5.668L11.334,43.206z M23.624,48.168l-8.501,8.501l-5.667-5.667l8.501-8.501 L23.624,48.168z M28.336,60.208l-5.667,5.667l-5.667-5.667l5.667-5.667L28.336,60.208z M32.125,45.335l8.501,8.501 c1.565,1.565,4.102,1.565,5.667,0l5.667-5.667c1.565-1.565,1.565-4.102,0-5.667L43.46,34l5.667-5.667l11.334,11.334 c3.13,3.13,3.13,8.205,0,11.334L49.127,62.336c-3.13,3.13-8.205,3.13-11.334,0L26.458,51.002L32.125,45.335z" id="link-broken"/></svg>