<svg xmlns="http://www.w3.org/2000/svg" width="64" height="64" viewBox="0 0 64 64"><style>.st0{fill-rule:evenodd;clip-rule:evenodd}</style><path class="st0" d="M56,64h-48c-2.209,0-4-1.791-4-4V4c0-2.209,1.791-4,4-4h48c2.209,0,4,1.791,4,4v56C60,62.209,58.209,64,56,64z M48,14c0-1.105-0.896-2-2-2H18c-1.105,0-2,0.895-2,2v4c0,1.104,0.895,2,2,2h28c1.104,0,2-0.895,2-2V14z M48,30 c0-1.104-0.896-2-2-2H18c-1.105,0-2,0.896-2,2v4c0,1.104,0.895,2,2,2h28c1.104,0,2-0.895,2-2V30z M48,46c0-1.104-0.896-2-2-2H18 c-1.105,0-2,0.895-2,2v4c0,1.104,0.895,2,2,2h28c1.104,0,2-0.896,2-2V46z" id="order"/></svg>