<svg xmlns="http://www.w3.org/2000/svg" width="64" height="64" viewBox="0 0 64 64"><style>.st0{fill-rule:evenodd;clip-rule:evenodd}</style><path class="st0" d="M60.236,62.118H3.764C1.685,62.118,0,60.433,0,58.353V5.648c0-2.081,1.685-3.766,3.764-3.766h56.471 C62.315,1.882,64,3.567,64,5.648v52.705C64,60.433,62.315,62.118,60.236,62.118z M54.84,9.414H9.161 c-0.901,0-1.631,0.722-1.631,1.612v22.652c2.223,1.294,4.772,2.089,7.529,2.089c5.459,0,10.194-2.933,12.835-7.28l0.017,0.018 c-0.017,0.02-0.041,0.034-0.058,0.055l5.234,5.121l0.23,0.23c-4.104,5.664-10.728,9.387-18.259,9.387 c-2.657,0-5.173-0.522-7.529-1.379v11.06c0,0.89,0.73,1.612,1.631,1.612H54.84c0.901,0,1.632-0.723,1.632-1.612V33.432 c-2.761-3.158-6.771-5.193-11.295-5.193c-4.789,0-9.123,2.16-11.882,5.645l-0.207-0.203l-5.176-5.176 c4.143-4.802,10.426-7.796,17.265-7.796c4.124,0,7.971,1.132,11.295,3.065V11.027C56.471,10.137,55.741,9.414,54.84,9.414z" id="pluse"/></svg>