<svg xmlns="http://www.w3.org/2000/svg" width="64" height="64" viewBox="0 0 64 64"><style>.st0{fill-rule:evenodd;clip-rule:evenodd}</style><path class="st0" d="M60,28H39.998c-2.095-0.009-4.009-1.789-4.001-4c0.011-2.211,1.911-4.009,4.001-4H52.63 C48.49,12.853,40.854,8.001,31.998,8.001C18.741,8.001,7.995,18.746,7.995,32c0,13.254,10.746,23.999,24.003,23.999 c6.829,0,12.923-2.904,17.271-7.498l7.13,4.116c-5.865,6.941-14.593,11.382-24.395,11.382C14.327,63.999,0,49.673,0,32 S14.327,0.002,32.003,0.002c9.636,0,18.164,4.335,23.996,11.088V4.001c0.008-2.107,1.879-4.009,4-4c2.119,0.009,4.007,1.892,4,4 V24c-0.004,0.96-0.443,1.846-1.085,2.551C62.185,27.42,61.152,28.005,60,28z" id="reload"/></svg>