<svg xmlns="http://www.w3.org/2000/svg" width="64" height="64" viewBox="0 0 64 64"><style>.st0{fill-rule:evenodd;clip-rule:evenodd}</style><path class="st0" d="M60,8.004h-7.089c6.753,5.831,11.088,14.359,11.088,23.993c0,17.675-14.327,32-31.999,32 c-17.673,0-32-14.325-32-32C0,15.682,12.219,2.247,28,0.274v8.132C16.66,10.32,8.001,20.121,8.001,32.002c0,13.255,10.745,24,24,24 c13.254,0,24-10.745,24-24c0-8.855-4.853-16.49-12-20.629v8.63c0.009,2.09-1.789,3.99-4,4c-2.211,0.008-3.991-1.906-4-4V4.004 c-0.005-1.152,0.58-2.186,1.449-2.916c0.705-0.641,1.59-1.081,2.55-1.085h20c2.108-0.006,3.991,1.881,4,4 C64.009,6.125,62.107,7.995,60,8.004z" id="replay"/></svg>