<svg xmlns="http://www.w3.org/2000/svg" width="64" height="64" viewBox="0 0 64 64"><style>.st0{fill-rule:evenodd;clip-rule:evenodd}</style><path class="st0" d="M54,20c-2.453,0-4.67-0.918-6.409-2.383L23.927,31.28C23.942,31.522,24,31.753,24,32s-0.058,0.477-0.073,0.72 l23.664,13.662C49.33,44.917,51.547,44,54,44c5.523,0,10,4.477,10,10s-4.477,10-10,10c-5.523,0-10-4.477-10-10 c0-0.147,0.037-0.283,0.043-0.428l-23.27-13.435C18.581,42.499,15.476,44,12,44C5.372,44,0,38.627,0,32c0-6.628,5.372-12,12-12 c3.476,0,6.582,1.501,8.773,3.863l23.27-13.435C44.037,10.283,44,10.146,44,10c0-5.523,4.477-10,10-10c5.523,0,10,4.477,10,10 S59.523,20,54,20z" id="share"/></svg>