<svg xmlns="http://www.w3.org/2000/svg" width="64" height="64" viewBox="0 0 64 64"><style>.st0{fill-rule:evenodd;clip-rule:evenodd}</style><path class="st0" d="M59.818,40h-28c-1.104,0-2-0.896-2-2v-4c0-1.105,0.895-2,2-2h28c1.104,0,2,0.895,2,2v4 C61.818,39.105,60.922,40,59.818,40z M51.818,24h-20c-1.104,0-2-0.896-2-2v-4c0-1.105,0.895-2,2-2h20c1.105,0,2,0.895,2,2v4 C53.818,23.105,52.922,24,51.818,24z M43.818,8h-12c-1.104,0-2-0.896-2-2V2c0-1.105,0.895-2,2-2h12c1.104,0,2,0.896,2,2v4 C45.818,7.105,44.922,8,43.818,8z M32.355,50.716l-10.805,10.57C21.009,62.856,19.561,64,17.809,64 c-1.732,0-3.17-1.111-3.727-2.647L3.275,50.712c-1.456-1.453-1.456-3.808,0-5.26C4.735,44,7.104,44,8.563,45.453l5.247,5.166V4 c0-2.209,1.787-4,4-4c2.208,0,4.001,1.791,4.001,4v46.6l5.254-5.142c1.463-1.452,3.83-1.452,5.29,0 C33.818,46.91,33.818,49.264,32.355,50.716z" id="sort-asc"/></svg>