<svg xmlns="http://www.w3.org/2000/svg" width="64" height="64" viewBox="0 0 64 64"><style>.st0{fill-rule:evenodd;clip-rule:evenodd}</style><path class="st0" d="M58,60h-4c-1.105,0-2-0.896-2-2V6c0-1.105,0.895-2,2-2h4c1.104,0,2,0.895,2,2v52C60,59.104,59.104,60,58,60z M42,60h-4c-1.105,0-2-0.896-2-2V22c0-1.105,0.896-2,2-2h4c1.104,0,2,0.895,2,2v36C44,59.104,43.104,60,42,60z M26,60h-4 c-1.105,0-2-0.896-2-2V14c0-1.105,0.895-2,2-2h4c1.105,0,2,0.895,2,2v44C28,59.104,27.104,60,26,60z M10,60H6c-1.105,0-2-0.896-2-2 V38c0-1.105,0.895-2,2-2h4c1.104,0,2,0.895,2,2v20C12,59.104,11.104,60,10,60z" id="stats-bars"/></svg>