<svg xmlns="http://www.w3.org/2000/svg" width="64" height="64" viewBox="0 0 64 64"><style>.st0{fill-rule:evenodd;clip-rule:evenodd}</style><path class="st0" d="M56,44.393H34.008l4.033,5.434c3.159,3.151,3.159,8.262,0,11.414c-3.16,3.153-8.282,3.153-11.441,0 c0,0-7.289-9.819-10.231-13.783c-0.428-0.576-3.117-4.13-5.337-7.063H6c-3.313,0-6-2.686-6-6v-24c0-3.314,2.686-6,6-6h7.11 C14.495,2.014,17.046,0.394,20,0.394h28c4.418,0,8,3.582,8,8l8,27.999C64,40.811,60.418,44.393,56,44.393z" id="thumb-down"/></svg>