<svg xmlns="http://www.w3.org/2000/svg" width="64" height="64" viewBox="0 0 64 64"><style>.st0{fill-rule:evenodd;clip-rule:evenodd}</style><path class="st0" d="M62,59.81h-4H6H2H0v-2v-6v-14c0-1.105,0.895-2,2-2h4c1.104,0,2,0.895,2,2v14H56v-14c0-1.105,0.895-2,2-2h4 c1.104,0,2,0.895,2,2v14v6v2H62z M41.116,22.867l-5.209-5.284v22.264c0,2.19-1.749,3.964-3.906,3.964 c-2.158,0-3.906-1.774-3.906-3.964V17.583l-5.209,5.284c-1.49,1.512-3.905,1.512-5.394,0c-1.49-1.512-1.49-3.961,0-5.471 L28.836,5.886c0.129-0.188,0.207-0.401,0.372-0.569c0.76-0.769,1.76-1.135,2.756-1.119c0.013,0,0.023-0.009,0.036-0.009 c0.014,0,0.026,0.008,0.04,0.008c0.994-0.014,1.993,0.352,2.752,1.12c0.161,0.163,0.232,0.371,0.358,0.554L46.51,17.396 c1.49,1.51,1.49,3.959,0,5.471C45.021,24.379,42.605,24.379,41.116,22.867z" id="upload"/></svg>