<svg xmlns="http://www.w3.org/2000/svg" width="64" height="64" viewBox="0 0 64 64"><style>.st0{fill-rule:evenodd;clip-rule:evenodd}</style><path class="st0" d="M27.337,33.433C30.155,31.237,32,27.849,32,24c0-6.628-5.373-12-12-12c-6.628,0-12,5.373-12,12 c0,3.849,1.845,7.237,4.663,9.433C5.256,36.363,0,43.551,0,52c0,1.37,0.14,2.707,0.403,4h39.194C39.859,54.707,40,53.37,40,52 C40,43.551,34.744,36.363,27.337,33.433z M52.751,25.335C54.736,23.508,56,20.911,56,18c0-5.523-4.477-10-10-10 c-5.523,0-10,4.477-10,10c0,2.926,1.279,5.534,3.282,7.363c-1.878,0.778-3.609,1.846-5.115,3.17C42.09,30.42,48,37.5,48,46 c0,0.685-0.127,1.334-0.201,2h15.1C63.568,46.115,64,44.115,64,42C64,34.45,59.341,28.008,52.751,25.335z" id="users"/></svg>