<svg xmlns="http://www.w3.org/2000/svg" width="64" height="64" viewBox="0 0 64 64"><style>.st0{fill-rule:evenodd;clip-rule:evenodd}</style><path class="st0" d="M61.076,25.522l-5.65,5.65c-3.9,3.901-10.224,3.901-14.124,0l-0.886-0.886L11.884,63.415 c-0.78,0.78-2.045,0.78-2.825,0l-8.474-8.474c-0.78-0.78-0.78-2.045,0-2.825l33.129-28.532l-0.886-0.886 c-3.9-3.9-3.9-10.224,0-14.124l5.65-5.65c3.416-3.416,8.692-3.839,12.569-1.27l-6.92,6.919c-2.34,2.34-2.34,6.134,0,8.474 l2.825,2.825c2.34,2.34,6.134,2.34,8.474,0l6.919-6.919C64.914,16.831,64.492,22.106,61.076,25.522z" id="wrench"/></svg>