<svg xmlns="http://www.w3.org/2000/svg" width="64" height="64" viewBox="0 0 64 64"><style>.st0{fill-rule:evenodd;clip-rule:evenodd}</style><path class="st0" d="M32,64C14.327,64,0,49.673,0,32C0,14.327,14.327,0,32,0c17.673,0,32,14.327,32,32C64,49.673,49.673,64,32,64z M50.543,21.452c-1.461-1.452-3.83-1.452-5.288,0l-17.25,17.09l-5.252-5.085c-1.463-1.452-3.83-1.452-5.29,0 c-1.463,1.452-1.463,3.807,0,5.259l7.214,6.98c0.164,0.294,0.313,0.596,0.564,0.846c0.768,0.762,1.782,1.1,2.786,1.062 c1.014,0.046,2.041-0.286,2.815-1.056c0.277-0.276,0.451-0.605,0.622-0.933l19.079-18.902 C51.999,25.26,51.999,22.905,50.543,21.452z" id="check-circle"/></svg>