<svg xmlns="http://www.w3.org/2000/svg" width="64" height="64" viewBox="0 0 64 64"><style>.st0{fill-rule:evenodd;clip-rule:evenodd}</style><path class="st0" d="M48.735,7.568L24.527,32l24.214,24.44c1.679,1.692,1.679,4.439,0,6.134c-1.679,1.69-4.401,1.69-6.079,0 l-26.344-26.59c-0.384-0.2-0.769-0.406-1.091-0.73c-0.89-0.898-1.274-2.089-1.22-3.266c-0.044-1.165,0.346-2.341,1.227-3.232 c0.312-0.314,0.686-0.51,1.057-0.707L42.657,1.432c1.679-1.697,4.4-1.697,6.078,0C50.413,3.127,50.413,5.872,48.735,7.568z" id="chevron-left"/></svg>