<svg xmlns="http://www.w3.org/2000/svg" width="64" height="64" viewBox="0 0 64 64"><style>.st0{fill-rule:evenodd;clip-rule:evenodd}</style><path class="st0" d="M50.887,26.629L35.524,41.814c-0.174,0.332-0.35,0.665-0.629,0.944c-0.789,0.784-1.835,1.123-2.867,1.076 c-1.023,0.039-2.056-0.305-2.839-1.082c-0.268-0.266-0.431-0.588-0.602-0.903L13.117,26.633c-1.49-1.479-1.49-3.878,0-5.356 c1.488-1.479,3.899-1.479,5.389,0l13.525,13.308l13.47-13.313c1.486-1.48,3.898-1.48,5.386,0 C52.371,22.751,52.371,25.149,50.887,26.629z" id="chevron-down-mini"/></svg>