<svg xmlns="http://www.w3.org/2000/svg" width="64" height="64" viewBox="0 0 64 64"><style>.st0{fill-rule:evenodd;clip-rule:evenodd}</style><path class="st0" d="M59.171,46.875c-1.506,1.492-3.946,1.492-5.455,0L32,25.357L10.276,46.881c-1.504,1.493-3.946,1.493-5.452,0 c-1.502-1.492-1.502-3.911,0-5.404L28.46,18.059c0.178-0.341,0.361-0.683,0.649-0.969c0.798-0.791,1.857-1.133,2.903-1.085 c1.035-0.039,2.081,0.308,2.873,1.091c0.28,0.277,0.454,0.61,0.629,0.939l23.658,23.438C60.679,42.964,60.679,45.383,59.171,46.875 z" id="chevron-up"/></svg>