<svg xmlns="http://www.w3.org/2000/svg" width="64" height="64" viewBox="0 0 64 64"><style>.st0{fill-rule:evenodd;clip-rule:evenodd}</style><path class="st0" d="M64,32c0,0-8.348,24-32,24c-5.794,0-10.657-1.451-14.716-3.626L7.03,62.628l-5.657-5.657l9.31-9.31 C3.073,40.729,0,32,0,32S8.214,8,32,8c5.81,0,10.676,1.444,14.735,3.608L56.971,1.372l5.657,5.657l-9.282,9.283 C60.968,23.248,64,32,64,32z M32,48c8.837,0,16-7.164,16-16c0-2.962-0.86-5.701-2.263-8.08l-6.034,6.034 C39.877,30.611,40,31.288,40,32c0,4.418-3.582,8-8,8c-0.712,0-1.389-0.122-2.046-0.297l-6.034,6.034C26.299,47.14,29.038,48,32,48 z M32,16c-8.836,0-16,7.164-16,16c0,2.962,0.86,5.701,2.263,8.08l6.034-6.034C24.123,33.389,24,32.712,24,32c0-4.418,3.582-8,8-8 c0.712,0,1.389,0.123,2.046,0.297l6.034-6.034C37.701,16.86,34.962,16,32,16z" id="eye-close"/></svg>