<svg xmlns="http://www.w3.org/2000/svg" width="64" height="64" viewBox="0 0 64 64"><style>.st0{fill-rule:evenodd;clip-rule:evenodd}</style><path class="st0" d="M30,26c0.71,0,1.368-0.237,2-0.538V26h10.047H56v8H45.141C46.889,36.867,48,40.255,48,44 c0,9.942-7.164,18-16,18c-8.228,0-14.927-7.012-15.821-16h7.982C24.902,50.564,28.13,54,32,54c4.418,0,8-4.477,8-10s-3.582-10-8-10 c-1.464,0-2.819,0.528-4,1.387V34h-9.178H8v-8h9.996c-1.226-2.356-1.996-5.053-1.996-8c0-8.837,6.268-16,14-16 c6.516,0,11.943,5.111,13.505,11.999H35.08c-1.046-2.348-2.884-4-5.08-4c-3.314,0-6,3.582-6,8.001C23.999,22.418,26.686,26,30,26z" id="format-clear"/></svg>