<svg xmlns="http://www.w3.org/2000/svg" width="64" height="64" viewBox="0 0 64 64"><style>.st0{fill-rule:evenodd;clip-rule:evenodd}</style><path class="st0" d="M56,62H20c-4.418,0-8-3.582-8-8v-8H8c-4.418,0-8-3.582-8-8V10c0-4.418,3.582-8,8-8H44c4.418,0,8,3.582,8,8v4h4 c4.418,0,8,3.582,8,8v32.001C64,58.419,60.418,62,56,62z M44,10H8v28h4V22c0-4.418,3.582-8,8-8h24V10z M20,22v32h7.174 C31.616,48.674,39.637,40.123,44,42c3.402,1.464,8.439,6.129,12,10.05V22H20z M30,38c-3.314,0-6-2.686-6-6c0-3.314,2.686-6,6-6 c3.314,0,6,2.686,6,6C36,35.314,33.314,38,30,38z" id="gallery"/></svg>