<svg xmlns="http://www.w3.org/2000/svg" width="64" height="64" viewBox="0 0 64 64"><style>.st0{fill-rule:evenodd;clip-rule:evenodd}</style><path class="st0" d="M64,32.005c0.006,2.104-1.878,3.984-3.994,3.993c-2.118,0.009-3.985-1.889-3.994-3.993v-5.247L35.102,50.696 c-0.419,0.419-0.906,0.722-1.425,0.926c-1.485,0.673-3.283,0.425-4.503-0.796L16.478,38.132l-9.35,12.562 c-1.63,1.63-4.274,1.63-5.905,0c-1.631-1.629-1.631-4.273,0-5.906l11.632-15.625c0.877-0.878,2.042-1.245,3.189-1.178 c1.038-0.005,2.077,0.386,2.869,1.178l12.774,12.774l19.143-21.911h-6.799c-2.086,0.009-3.983-1.786-3.994-3.993 c-0.008-2.207,1.903-3.985,3.994-3.993h15.302c0.729-0.077,1.455,0.003,2.134,0.309c0.15,0.065,0.265,0.186,0.406,0.27 c0.289,0.173,0.595,0.311,0.844,0.56c0.123,0.124,0.173,0.285,0.278,0.419c0.587,0.688,1,1.523,1.003,2.436V32.005z" id="graph-up"/></svg>