<svg xmlns="http://www.w3.org/2000/svg" width="64" height="64" viewBox="0 0 64 64"><style>.st0{fill-rule:evenodd;clip-rule:evenodd}</style><path class="st0" d="M62.997,50.23c-0.105,0.134-0.155,0.293-0.279,0.416c-0.25,0.248-0.557,0.386-0.847,0.557 c-0.14,0.082-0.254,0.201-0.402,0.265c-0.68,0.303-1.406,0.382-2.135,0.306H44.031c-2.09-0.008-4.002-1.769-3.993-3.956 c0.011-2.187,1.907-3.965,3.993-3.957h6.799L31.683,22.15l-12.82,12.66c-0.792,0.785-1.831,1.172-2.869,1.168 c-1.148,0.066-2.313-0.298-3.19-1.168L1.223,19.331c-1.63-1.618-1.63-4.237,0-5.85c1.631-1.616,4.275-1.616,5.905,0l9.309,12.445 L29.174,13.35c1.221-1.211,3.018-1.456,4.503-0.789c0.518,0.202,1.005,0.502,1.424,0.917l20.911,23.715v-5.198 c0.008-2.084,1.876-3.965,3.993-3.956c2.116,0.008,4,1.871,3.994,3.956v15.824C63.996,48.723,63.584,49.549,62.997,50.23z" id="graph-down"/></svg>