<svg xmlns="http://www.w3.org/2000/svg" width="64" height="64" viewBox="0 0 64 64"><style>.st0{fill-rule:evenodd;clip-rule:evenodd}</style><path class="st0" d="M44.505,29.222c-0.37,0.642-0.866,1.305-1.565,1.996c-0.086,0.086-0.186,0.154-0.274,0.238 c-0.738,0.695-1.685,1.414-2.815,2.152c-0.082,0.049-0.143,0.124-0.225,0.172v-0.022c-1.142,0.731-2.416,1.474-4,2.242 c0,5.938,0,7.597,0,8c0,0-4,0-8,0c0-9.468,2.51-14.138,5.884-16.264c3.375-2.125,6.116-3.364,6.116-7.736c0-4.418-3.582-8-8-8 c-3.626,0-6.654,2.428-7.635,5.736l-0.039-0.017C23.304,19.058,21.961,20,20.375,20c-2.209,0-4-1.791-4-4 c0-0.52,0.115-1.01,0.296-1.465l-0.022-0.01C18.891,8.397,24.721,4,31.625,4c8.836,0,16,7.163,16,16 C47.625,23.483,46.405,26.611,44.505,29.222z M35.625,60h-8v-8h8V60z" id="help"/></svg>