<svg xmlns="http://www.w3.org/2000/svg" width="64" height="64" viewBox="0 0 64 64"><style>.st0{fill-rule:evenodd;clip-rule:evenodd}</style><path class="st0" d="M28.725,1.721c0.139-0.211,0.233-0.445,0.419-0.631c0.784-0.785,1.821-1.131,2.847-1.09 c1.033-0.047,2.077,0.296,2.866,1.086c0.191,0.191,0.288,0.43,0.43,0.647l27.596,23.698c1.488,1.49,1.488,3.901,0,5.393 c-1.491,1.492-3.904,1.492-5.394,0l-1.468-1.26v34.441H7.975V29.563L6.512,30.82c-1.492,1.49-3.905,1.49-5.394,0 c-1.49-1.492-1.49-3.903,0-5.395L28.725,1.721z" id="home"/></svg>