<svg xmlns="http://www.w3.org/2000/svg" width="64" height="64" viewBox="0 0 64 64"><style>.st0{fill-rule:evenodd;clip-rule:evenodd}</style><path class="st0" d="M60.675,49.205l-11.47,11.47c-3.167,3.167-8.303,3.167-11.47,0l-8.602-8.602c-3.167-3.167-3.167-8.303,0-11.47 L32,37.735L26.265,32l-2.868,2.867c-3.167,3.167-8.302,3.167-11.47,0l-8.602-8.602c-3.167-3.167-3.167-8.303,0-11.47l11.47-11.47 c3.167-3.167,8.303-3.167,11.47,0l8.603,8.602c3.167,3.167,3.167,8.303,0,11.47L32,26.265L37.735,32l2.867-2.868 c3.167-3.167,8.303-3.167,11.47,0l8.603,8.603C63.842,40.902,63.842,46.037,60.675,49.205z M27.699,19.096 c0.792-0.792,0.792-2.075,0-2.867l-5.735-5.735c-0.792-0.792-2.076-0.792-2.867,0l-8.602,8.602c-0.792,0.792-0.792,2.075,0,2.867 l5.735,5.735c0.792,0.792,2.075,0.792,2.867,0l1.434-1.434l-1.434-1.434c-0.792-0.792-0.792-2.075,0-2.867l2.867-2.867 c0.792-0.792,2.076-0.792,2.867,0l1.434,1.434L27.699,19.096z M53.506,42.036l-5.735-5.734c-0.792-0.792-2.076-0.792-2.867,0 l-1.434,1.434l1.434,1.434c0.792,0.792,0.792,2.076,0,2.867l-2.868,2.867c-0.792,0.792-2.075,0.792-2.867,0l-1.434-1.434 l-1.434,1.434c-0.792,0.792-0.792,2.076,0,2.868l5.735,5.735c0.792,0.792,2.076,0.792,2.868,0l8.602-8.603 C54.298,44.112,54.298,42.828,53.506,42.036z" id="link"/></svg>