<svg xmlns="http://www.w3.org/2000/svg" width="64" height="64" viewBox="0 0 64 64"><style>.st0{fill-rule:evenodd;clip-rule:evenodd}</style><path class="st0" d="M57.321,29.186L46.067,40.44c-5.439,5.438-14.256,5.438-19.694,0l-1.407-1.407l5.627-5.627L32,34.813 c2.331,2.331,6.109,2.331,8.44,0L51.694,23.56c2.331-2.331,2.331-6.11,0-8.441l-2.813-2.813c-2.331-2.331-6.109-2.331-8.44,0 l-1.407,1.407l-5.627-5.627l1.407-1.407c5.438-5.438,14.256-5.438,19.694,0l2.813,2.813C62.76,14.931,62.76,23.748,57.321,29.186z M39.034,24.966l-5.627,5.627L32,29.186c-2.331-2.33-6.109-2.33-8.44,0L12.306,40.44c-2.331,2.331-2.331,6.11,0,8.44l2.813,2.813 c2.331,2.331,6.11,2.331,8.441,0l1.407-1.407l5.627,5.627l-1.407,1.407c-5.438,5.439-14.256,5.439-19.694,0l-2.813-2.813 c-5.439-5.438-5.439-14.256,0-19.694L17.933,23.56c5.439-5.439,14.256-5.439,19.694,0L39.034,24.966z" id="link-intact"/></svg>