<svg xmlns="http://www.w3.org/2000/svg" width="64" height="64" viewBox="0 0 64 64"><style>.st0{fill-rule:evenodd;clip-rule:evenodd}</style><path class="st0" d="M62,56H18c-1.105,0-2-0.896-2-2v-4c0-1.105,0.895-2,2-2h44c1.104,0,2,0.895,2,2v4C64,55.105,63.104,56,62,56z M62,36H18c-1.105,0-2-0.896-2-2v-4c0-1.105,0.895-2,2-2h44c1.104,0,2,0.896,2,2v4C64,35.105,63.104,36,62,36z M62,16H18 c-1.105,0-2-0.896-2-2v-4c0-1.105,0.895-2,2-2h44c1.104,0,2,0.896,2,2v4C64,15.105,63.104,16,62,16z M6,56H2c-1.105,0-2-0.896-2-2 v-4c0-1.105,0.895-2,2-2h4c1.104,0,2,0.895,2,2v4C8,55.105,7.104,56,6,56z M6,36H2c-1.105,0-2-0.896-2-2v-4c0-1.105,0.895-2,2-2h4 c1.104,0,2,0.896,2,2v4C8,35.105,7.104,36,6,36z M6,16H2c-1.105,0-2-0.896-2-2v-4c0-1.105,0.895-2,2-2h4c1.104,0,2,0.896,2,2v4 C8,15.105,7.104,16,6,16z" id="list"/></svg>