<svg xmlns="http://www.w3.org/2000/svg" width="64" height="64" viewBox="0 0 64 64"><style>.st0{fill-rule:evenodd;clip-rule:evenodd}</style><path class="st0" d="M55.427,27.464L39.442,43.449l0,0l-2.906,2.906c-3.21,3.21-8.415,3.21-11.625,0l-2.906-2.906 c-3.21-3.21-3.21-8.416,0-11.626l17.438-17.438l5.813,5.813L31.692,33.761c-2.14,2.14-3.355,4.396-2.713,5.038l0.582,0.581 c0.642,0.642,2.897-0.573,5.037-2.712l4.063-4.063l10.953-10.953c2.408-2.408,2.408-6.311,0-8.719l-2.906-2.906 c-2.408-2.408-6.312-2.408-8.719,0l-7.266,7.266L16.191,31.824c-4.816,4.816-4.816,12.623,0,17.438l2.906,2.906 c4.816,4.816,12.622,4.816,17.438,0l14.532-14.532l5.813,5.813L42.348,57.981c-8.026,8.026-21.038,8.026-29.063,0l-2.907-2.906 c-8.025-8.026-8.025-21.038,0-29.064l5.813-5.813l0,0L32.176,4.213c5.618-5.618,14.726-5.618,20.344,0l2.906,2.906 C61.045,12.737,61.045,21.846,55.427,27.464z" id="paperclip"/></svg>