<svg xmlns="http://www.w3.org/2000/svg" width="64" height="64" viewBox="0 0 64 64"><style>.st0{fill-rule:evenodd;clip-rule:evenodd}</style><path class="st0" d="M32,64.002c-17.674,0-32-14.327-32-32C0,20.756,5.814,10.883,14.587,5.176l3.618,7.236 C12.048,16.756,8,23.893,8,32.002c0,13.254,10.745,24,24,24c13.255,0,24-10.746,24-24c0-8.109-4.048-15.246-10.205-19.591 l3.618-7.235C58.186,10.883,64,20.756,64,32.002C64,49.675,49.673,64.002,32,64.002z M33.333,31.998h-2.667 c-1.473,0-2.667-1.791-2.667-4v-24c0-2.209,1.194-4,2.667-4h2.667c1.472,0,2.666,1.791,2.666,4v24 C36,30.207,34.806,31.998,33.333,31.998z" id="power"/></svg>