<svg xmlns="http://www.w3.org/2000/svg" width="64" height="64" viewBox="0 0 64 64"><style>.st0{fill-rule:evenodd;clip-rule:evenodd}</style><path class="st0" d="M31.997,63.847c-9.801,0-18.53-4.42-24.395-11.328l7.13-4.097c4.348,4.572,10.441,7.462,17.27,7.462 c13.257,0,24.003-10.693,24.003-23.885c0-13.191-10.746-23.885-24.003-23.885c-8.856,0-16.492,4.83-20.632,11.943h12.632 c2.09-0.009,3.99,1.78,4.001,3.981c0.008,2.201-1.907,3.972-4.001,3.981H4.001c-1.152,0.005-2.187-0.577-2.916-1.444 C0.443,25.874,0.004,24.994,0,24.038V4.133c-0.006-2.097,1.881-3.972,4.001-3.981c2.121-0.009,3.992,1.884,4,3.981v7.056 c5.832-6.721,14.36-11.035,23.996-11.035C49.673,0.154,64,14.412,64,32.001S49.673,63.847,31.997,63.847z" id="refresh"/></svg>