<svg xmlns="http://www.w3.org/2000/svg" width="64" height="64" viewBox="0 0 64 64"><style>.st0{fill-rule:evenodd;clip-rule:evenodd}</style><path class="st0" d="M62,20h-6v6c0,1.104-0.896,2-2,2h-4c-1.104,0-2-0.896-2-2v-6h-6c-1.105,0-2-0.896-2-2v-4c0-1.105,0.896-2,2-2 h6V6c0-1.104,0.896-2,2-2h4c1.104,0,2,0.896,2,2v6h6c1.104,0,2,0.895,2,2v4C64,19.105,63.104,20,62,20z M40,56 c0,1.37-0.14,2.707-0.403,4H0.403C0.14,58.707,0,57.37,0,56c0-8.449,5.256-15.637,12.663-18.567C9.844,35.237,8,31.849,8,28 c0-6.627,5.373-12,12-12c6.628,0,12,5.373,12,12c0,3.849-1.845,7.237-4.663,9.433C34.744,40.363,40,47.551,40,56z" id="user-add"/></svg>