<svg xmlns="http://www.w3.org/2000/svg" width="64" height="64" viewBox="0 0 64 64"><style>.st0{fill-rule:evenodd;clip-rule:evenodd}</style><path class="st0" d="M59.421,56.623l-2.797,2.797c-0.773,0.773-2.025,0.773-2.797,0L41.452,47.045 c-3.879,2.761-8.593,4.422-13.717,4.422C14.626,51.468,4,40.842,4,27.734S14.626,4,27.734,4c13.108,0,23.734,10.626,23.734,23.734 c0,5.124-1.661,9.838-4.422,13.717l12.375,12.375C60.193,54.599,60.193,55.851,59.421,56.623z M27.734,11.911 c-8.739,0-15.823,7.084-15.823,15.823c0,8.739,7.084,15.823,15.823,15.823c8.738,0,15.823-7.084,15.823-15.823 C43.557,18.995,36.473,11.911,27.734,11.911z M31.69,31.69v5.934c0,1.092-0.885,1.978-1.978,1.978h-3.956 c-1.092,0-1.977-0.886-1.977-1.978V31.69h-5.934c-1.093,0-1.978-0.885-1.978-1.978v-3.956c0-1.092,0.886-1.977,1.978-1.977h5.934 v-5.934c0-1.092,0.885-1.977,1.977-1.977h3.956c1.093,0,1.978,0.885,1.978,1.977v5.934h5.934c1.092,0,1.978,0.885,1.978,1.977 v3.956c0,1.093-0.886,1.978-1.978,1.978H31.69z" id="zoom-in"/></svg>